<svg xmlns:xlink="http://www.w3.org/1999/xlink" xmlns="http://www.w3.org/2000/svg" class="websites-category-svg" viewBox="0 0 47.62 40.08" width="47.62"  height="40.08" ><path class="websites-category-demographic-component" d="M400.93,598.84a8.66,8.66,0,0,1,4,6.43,7,7,0,1,0-4-6.43h0Zm-4.58,14.3a7,7,0,1,0-7-7,7,7,0,0,0,7,7h0Zm3,0.48h-5.93a9,9,0,0,0-8.94,8.94v7.25l0,0.11,0.5,0.16a40.74,40.74,0,0,0,12.16,2c6.57,0,10.38-1.87,10.62-2l0.46-.23h0v-7.25a9,9,0,0,0-8.94-8.94h0Zm11.55-7.21H405a8.61,8.61,0,0,1-2.66,6,10.62,10.62,0,0,1,7.59,10.17v2.23a24.07,24.07,0,0,0,9.37-2l0.46-.24h0.05v-7.25a9,9,0,0,0-8.94-8.94h0Zm-26.77-.48a6.94,6.94,0,0,0,3.71-1.08,8.66,8.66,0,0,1,3.25-5.51c0-.13,0-0.26,0-0.39a7,7,0,1,0-7,7h0Zm6.27,6.47a8.61,8.61,0,0,1-2.66-6c-0.22,0-.44,0-0.66,0h-5.93a9,9,0,0,0-8.94,8.94v7.25l0,0.11,0.5,0.16a41.92,41.92,0,0,0,10.07,1.89v-2.19a10.62,10.62,0,0,1,7.59-10.17h0Zm0,0" transform="translate(-372.19 -591.96)" fill="#54354a"></path></svg>